<svg width="24" height="24" viewBox="0 0 24 24" fill="none" xmlns="http://www.w3.org/2000/svg">
<g clip-path="url(#clip0_14_333)">
<path d="M21.8869 5.96808C21.8427 5.90884 21.7873 5.85889 21.7238 5.82108C21.6603 5.78327 21.59 5.75834 21.5168 5.74772C21.4437 5.7371 21.3692 5.74099 21.2976 5.75918C21.2259 5.77736 21.1586 5.80948 21.0994 5.85371L12.0262 12.6262C11.9938 12.6505 11.9543 12.6637 11.9137 12.6637C11.8732 12.6637 11.8337 12.6505 11.8012 12.6262L2.90625 5.82371C2.84752 5.77889 2.78055 5.74608 2.70914 5.72716C2.63774 5.70823 2.5633 5.70355 2.49009 5.71338C2.41688 5.72322 2.34632 5.74738 2.28244 5.78449C2.21857 5.82159 2.16263 5.87092 2.11781 5.92964C2.073 5.98837 2.04019 6.05535 2.02126 6.12675C2.00233 6.19816 1.99765 6.27259 2.00749 6.3458C2.01733 6.41902 2.04149 6.48957 2.07859 6.55345C2.1157 6.61733 2.16502 6.67327 2.22375 6.71808L9.2175 12.0675L2.30062 17.28C2.24104 17.3244 2.19079 17.3801 2.15274 17.444C2.1147 17.5079 2.08961 17.5786 2.0789 17.6522C2.06819 17.7257 2.07208 17.8007 2.09034 17.8727C2.10859 17.9448 2.14087 18.0126 2.18531 18.0721C2.22976 18.1317 2.2855 18.182 2.34937 18.22C2.41323 18.2581 2.48396 18.2832 2.55752 18.2939C2.63108 18.3046 2.70603 18.3007 2.77809 18.2824C2.85015 18.2642 2.91791 18.2319 2.9775 18.1875L10.1456 12.7762L11.1169 13.5262C11.3433 13.6996 11.6201 13.7944 11.9053 13.7965C12.1905 13.7985 12.4686 13.7076 12.6975 13.5375L13.7175 12.7762L20.97 18.1875C21.0292 18.2317 21.0966 18.2638 21.1682 18.2819C21.2398 18.3001 21.3143 18.304 21.3874 18.2934C21.4606 18.2827 21.5309 18.2578 21.5944 18.22C21.6579 18.1822 21.7133 18.1323 21.7575 18.0731C21.8017 18.0139 21.8338 17.9465 21.852 17.8749C21.8701 17.8033 21.874 17.7288 21.8634 17.6556C21.8528 17.5825 21.8279 17.5122 21.7901 17.4487C21.7523 17.3852 21.7023 17.3298 21.6431 17.2856L14.6569 12.0656L21.7725 6.74996C21.8905 6.66083 21.9687 6.52882 21.9901 6.38248C22.0115 6.23615 21.9744 6.08727 21.8869 5.96808Z" fill="#88D498"/>
<path d="M21.1875 3.5625H2.8125C2.06658 3.5625 1.35121 3.85882 0.823762 4.38626C0.296316 4.91371 0 5.62908 0 6.375L0 17.625C0 18.3709 0.296316 19.0863 0.823762 19.6137C1.35121 20.1412 2.06658 20.4375 2.8125 20.4375H21.1875C21.9334 20.4375 22.6488 20.1412 23.1762 19.6137C23.7037 19.0863 24 18.3709 24 17.625V6.375C24 5.62908 23.7037 4.91371 23.1762 4.38626C22.6488 3.85882 21.9334 3.5625 21.1875 3.5625ZM22.875 17.625C22.875 18.0726 22.6972 18.5018 22.3807 18.8182C22.0643 19.1347 21.6351 19.3125 21.1875 19.3125H2.8125C2.36495 19.3125 1.93572 19.1347 1.61926 18.8182C1.30279 18.5018 1.125 18.0726 1.125 17.625V6.375C1.125 5.92745 1.30279 5.49823 1.61926 5.18176C1.93572 4.86529 2.36495 4.6875 2.8125 4.6875H21.1875C21.6351 4.6875 22.0643 4.86529 22.3807 5.18176C22.6972 5.49823 22.875 5.92745 22.875 6.375V17.625Z" fill="#88D498"/>
</g>
<defs>
<clipPath id="clip0_14_333">
<rect width="24" height="24" fill="white"/>
</clipPath>
</defs>
</svg>
