<svg width="87" height="44" viewBox="0 0 87 44" fill="none" xmlns="http://www.w3.org/2000/svg">
<path d="M71.4783 9.56833C71.4783 9.56833 74.2783 20.5058 64.8283 24.0933C64.175 24.3442 63.7083 24.9158 63.3933 25.68C62.32 28.2758 62.9267 33.0883 63.6033 35.1125L56.7783 41.9375H51.3533C51.3533 41.9375 50.7408 37.825 54.5908 37.825C58.4408 37.825 54.2408 24.7 54.2408 24.7C54.2408 24.7 48.0283 28.725 43.3033 28.025C41.1217 27.7042 37.6567 27.8267 34.1042 28.2933C31.4792 28.6375 28.8133 29.1742 26.585 29.8567C25.3017 30.2475 24.1583 30.6908 23.26 31.175C18.71 33.625 14.2475 35.4625 14.2475 35.4625C14.2475 35.4625 12.41 40.3625 9.5225 41.325C6.635 42.2875 5.06 39.4875 5.06 39.4875L12.3225 30.3875L16.6975 26.1C16.6975 26.1 16.5225 18.3125 14.685 17.875C12.8475 17.4375 10.135 18.75 8.1225 16.3875C8.1225 16.3875 6.0225 19.275 4.7975 19.0125C3.5725 18.75 1.735 16.3 1.735 16.3C1.735 16.3 -0.277501 15.6 0.859999 14.2L2.785 10.6125L2.96 7.375L5.6725 3.7875L7.335 0.550003L9.3475 2.3875C9.3475 2.3875 20.635 2.65 27.985 5.1875C35.335 7.725 39.6225 5.45 46.4475 4.575C53.1558 3.7175 67.8967 3.7 71.5542 9.51584C71.6183 9.615 71.6767 9.72 71.735 9.825C75.06 15.95 71.035 24.2625 71.9975 26.45C72.96 28.6375 78.4725 33.3625 78.4725 33.3625L78.9975 40.625L76.6758 42.9408H71.9042C71.9042 42.9408 71.9042 39.4875 74.3542 39.225L71.8167 33.45L63.3817 25.68" stroke="#88D498" stroke-miterlimit="10" stroke-linecap="round" stroke-linejoin="round"/>
<path d="M26.5908 29.8683L28.6908 38.0058C28.6908 38.0058 24.5783 37.8308 23.8783 41.8558H31.4033L34.4658 37.7433L34.1158 28.3808" stroke="#88D498" stroke-miterlimit="10" stroke-linecap="round" stroke-linejoin="round"/>
<path d="M71.7408 9.83083C71.7408 9.83083 76.9908 13.1558 77.0783 19.9808C77.1658 26.8058 80.4908 33.1058 86.2658 28.2933" stroke="#88D498" stroke-miterlimit="10" stroke-linecap="round" stroke-linejoin="round"/>
<path d="M38.7533 6.50583C38.7533 6.50583 44.9658 13.2433 44.6158 21.1183" stroke="#88D498" stroke-miterlimit="10" stroke-linecap="round" stroke-linejoin="round"/>
<path d="M38.6658 27.0683C38.6658 27.0683 37.7033 20.8558 37.6158 14.5558" stroke="#88D498" stroke-miterlimit="10" stroke-linecap="round" stroke-linejoin="round"/>
<path d="M33.7658 6.68083C33.1358 7.375 32.5583 14.585 32.6283 17.2683" stroke="#88D498" stroke-miterlimit="10" stroke-linecap="round" stroke-linejoin="round"/>
<path d="M33.4158 32.3183L31.0533 32.8433" stroke="#88D498" stroke-miterlimit="10" stroke-linecap="round" stroke-linejoin="round"/>
<path d="M56.2533 28.9058C56.2533 28.9058 59.6658 29.9558 62.8158 27.1558" stroke="#88D498" stroke-miterlimit="10" stroke-linecap="round" stroke-linejoin="round"/>
<path d="M54.2408 24.7058C54.2408 24.7058 58.8783 21.1183 58.7908 15.8683" stroke="#88D498" stroke-miterlimit="10" stroke-linecap="round" stroke-linejoin="round"/>
<path d="M48.4658 26.7183C48.7283 26.3683 52.1408 22.1683 50.4783 16.6558" stroke="#88D498" stroke-miterlimit="10" stroke-linecap="round" stroke-linejoin="round"/>
<path d="M49.0783 4.40583C49.0783 4.40583 54.7658 9.39333 54.3283 15.5183" stroke="#88D498" stroke-miterlimit="10" stroke-linecap="round" stroke-linejoin="round"/>
<path d="M58.9658 4.84333C58.9658 4.84333 65.6158 10.3558 62.9033 17.7058" stroke="#88D498" stroke-miterlimit="10" stroke-linecap="round" stroke-linejoin="round"/>
<path d="M18.2783 3.70583C18.2783 3.70583 20.3783 8.95583 17.4033 12.4558" stroke="#88D498" stroke-miterlimit="10" stroke-linecap="round" stroke-linejoin="round"/>
<path d="M23.7033 4.66833C23.7033 4.66833 25.2783 11.7558 22.0408 15.7808" stroke="#88D498" stroke-miterlimit="10" stroke-linecap="round" stroke-linejoin="round"/>
<path d="M28.2533 5.98083C28.2533 5.98083 27.2908 20.6808 26.5033 21.6433" stroke="#88D498" stroke-miterlimit="10" stroke-linecap="round" stroke-linejoin="round"/>
<path d="M32.0158 22.4308C32.0158 22.4308 32.8033 26.4558 35.4283 28.1183" stroke="#88D498" stroke-miterlimit="10" stroke-linecap="round" stroke-linejoin="round"/>
<path d="M21.1658 32.2308C21.0783 31.8808 20.0283 29.4308 19.2408 29.1683" stroke="#88D498" stroke-miterlimit="10" stroke-linecap="round" stroke-linejoin="round"/>
<path d="M43.8283 5.63083C43.8283 5.63083 47.5033 8.08083 48.5533 10.9683" stroke="#88D498" stroke-miterlimit="10" stroke-linecap="round" stroke-linejoin="round"/>
<path d="M54.7658 5.01833C54.7658 5.01833 58.0908 9.21833 58.0908 11.0558" stroke="#88D498" stroke-miterlimit="10" stroke-linecap="round" stroke-linejoin="round"/>
</svg>
