<svg width="30" height="30" viewBox="0 0 30 30" fill="none" xmlns="http://www.w3.org/2000/svg">
<g clip-path="url(#clip0_14_345)">
<path d="M15 12.7175C17.2075 9.2375 19.1438 7.5 20.81 7.5C23.31 7.5 24.8888 10.2663 25.81 14.0213C26.69 17.6075 26.435 22.5 23.31 22.5C21.9175 22.5 20 20.5437 18.125 17.935C16.9319 16.2911 15.8862 14.5452 15 12.7175Z" stroke="#88D498" stroke-width="2" stroke-linecap="round" stroke-linejoin="round"/>
<path d="M15 12.7175C12.7925 9.2375 10.8563 7.5 9.19002 7.5C6.69002 7.5 5.11127 10.2663 4.19002 14.0213C3.31002 17.6075 3.56502 22.5 6.69002 22.5C8.08252 22.5 10 20.5437 11.875 17.935C13.125 16.1962 14.1663 14.4562 15 12.7175Z" stroke="#88D498" stroke-width="2" stroke-linecap="round" stroke-linejoin="round"/>
</g>
<defs>
<clipPath id="clip0_14_345">
<rect width="30" height="30" fill="white"/>
</clipPath>
</defs>
</svg>
