<svg width="24" height="24" viewBox="0 0 24 24" fill="none" xmlns="http://www.w3.org/2000/svg">
<path d="M20.741 17.218L20.611 17.056C19.582 15.755 18.722 15.078 17.984 14.989C17.346 14.902 16.729 15.343 16.073 15.797L15.372 16.235C15.288 16.277 15.205 16.311 15.127 16.334C14.717 16.45 13.682 16.518 13.096 15.982C12.414 15.358 11.356 14.216 10.533 13.218C9.747 12.185 8.883 10.897 8.432 10.086C8.051 9.39898 8.37 8.43798 8.583 8.08198C8.625 8.01198 8.68 7.94298 8.741 7.87498L9.359 7.30398C9.368 7.29498 9.372 7.28398 9.38 7.27598C9.386 7.26998 9.396 7.27199 9.403 7.26698C9.961 6.79598 10.538 6.31099 10.617 5.68798C10.71 4.95599 10.255 3.96598 9.224 2.66598L9.098 2.50398C8.46 1.68598 7.495 0.448985 6.109 0.652985C5.564 0.733985 5.077 0.919985 4.575 1.23498C4.57 1.23798 4.567 1.24398 4.563 1.24698C4.559 1.24998 4.554 1.24998 4.55 1.25298L3.851 1.77098C3.844 1.77498 3.84 1.78398 3.833 1.78998C3.828 1.79498 3.82 1.79598 3.814 1.80098C3.733 1.86898 3.652 1.93898 3.572 2.01098C2.863 2.64298 1.328 4.47798 2.375 7.87198C3.051 10.064 4.445 12.622 6.416 15.284L6.397 15.3L7.484 16.654L7.493 16.647C9.63 19.175 11.805 21.129 13.798 22.312C15.128 23.102 16.29 23.363 17.246 23.363C18.504 23.363 19.405 22.911 19.857 22.617L20.141 22.427C20.173 22.405 20.196 22.374 20.219 22.346L20.838 21.88C20.845 21.874 20.849 21.866 20.856 21.86C20.859 21.857 20.864 21.858 20.868 21.855C21.308 21.453 21.613 21.032 21.825 20.533C22.374 19.254 21.391 18.029 20.741 17.218ZM21.09 20.219C20.925 20.607 20.684 20.937 20.336 21.257L19.415 21.95C18.581 22.492 16.798 23.162 14.208 21.624C12.215 20.441 10.021 18.441 7.862 15.84L7.278 15.102C5.245 12.406 3.815 9.82399 3.14 7.63598C2.263 4.79099 3.368 3.26498 4.108 2.60598C4.183 2.53798 4.258 2.47498 4.332 2.41198L4.335 2.40898L5.006 1.91198C5.414 1.65398 5.792 1.50998 6.227 1.44398C7.156 1.30398 7.912 2.28398 8.467 2.99598L8.597 3.16098C9.749 4.61398 9.86 5.30498 9.824 5.58698C9.784 5.89998 9.308 6.30098 8.888 6.65398L8.829 6.70398C8.827 6.70598 8.826 6.70898 8.824 6.71098C8.821 6.71298 8.818 6.71398 8.815 6.71598L8.176 7.30698C8.172 7.31099 8.17 7.31598 8.166 7.32098C8.162 7.32598 8.154 7.32798 8.15 7.33298C8.051 7.44398 7.966 7.55499 7.897 7.66998C7.538 8.27098 7.199 9.51298 7.734 10.474C8.201 11.314 9.09 12.641 9.907 13.713C10.761 14.749 11.85 15.925 12.556 16.57C13.085 17.053 13.821 17.215 14.458 17.215C14.799 17.215 15.112 17.168 15.349 17.101C15.474 17.065 15.603 17.013 15.736 16.948C15.744 16.944 15.748 16.937 15.756 16.932C15.76 16.93 15.766 16.931 15.77 16.928L16.512 16.464C16.536 16.448 16.552 16.427 16.572 16.407L16.581 16.417C17.038 16.1 17.559 15.728 17.885 15.782C18.174 15.817 18.83 16.095 19.984 17.552L20.117 17.719C20.679 18.42 21.449 19.38 21.09 20.219Z" fill="#88D498"/>
</svg>
